HIERARCHY
ROOT root
{
	OFFSET	0	13.1	24.9
	CHANNELS 6  Xposition Yposition Zposition Xrotation Yrotation Zrotation
	JOINT spine_1
	{
		OFFSET	0	9.99999	0
		CHANNELS 3  Xrotation Yrotation Zrotation
		JOINT spine_2
		{
			OFFSET	0	112	-10
			CHANNELS 3  Xrotation Yrotation Zrotation
			JOINT spine_3
			{
				OFFSET	0	206.5	19.3
				CHANNELS 3  Xrotation Yrotation Zrotation
				JOINT spine_4
				{
					OFFSET	0	110.4	14.6
					CHANNELS 3  Xrotation Yrotation Zrotation
					JOINT neck_1
					{
						OFFSET	0	71.8	-50.3
						CHANNELS 3  Xrotation Yrotation Zrotation
						JOINT neck_2
						{
							OFFSET	0	86.2	-25.8
							CHANNELS 3  Xrotation Yrotation Zrotation
							JOINT head_ee
							{
								OFFSET	0	179.8	-8.7
								CHANNELS 3  Xrotation Yrotation Zrotation
								End Site
								{
									OFFSET	1	0	0
								}
							}
						}
					}
					JOINT left_clavicle
					{
						OFFSET	-43.2	22.4	-70.8
						CHANNELS 3  Xrotation Yrotation Zrotation
						JOINT left_shoulder
						{
							OFFSET	-93.9	-5.79999	48.7
							CHANNELS 3  Xrotation Yrotation Zrotation
							JOINT left_elbow
							{
								OFFSET	-291.4	-30.8	15.2
								CHANNELS 3  Xrotation Yrotation Zrotation
								JOINT left_lowarm_twist
								{
									OFFSET	-110.7	-3.89999	13.6
									CHANNELS 3  Xrotation Yrotation Zrotation
									JOINT left_hand
									{
										OFFSET	-110.7	-3.89999	13.6
										CHANNELS 3  Xrotation Yrotation Zrotation
										JOINT left_ee
										{
											OFFSET	-80.8	-5.10001	12.1
											CHANNELS 3  Xrotation Yrotation Zrotation
											End Site
											{
												OFFSET	1	0	0
											}
										}
									}
								}
							}
						}
					}
					JOINT right_clavicle
					{
						OFFSET	43.2	22.4	-70.8
						CHANNELS 3  Xrotation Yrotation Zrotation
						JOINT right_shoulder
						{
							OFFSET	93.9	-5.79999	48.7
							CHANNELS 3  Xrotation Yrotation Zrotation
							JOINT right_elbow
							{
								OFFSET	291.4	-30.8	15.2
								CHANNELS 3  Xrotation Yrotation Zrotation
								JOINT right_lowarm_twist
								{
									OFFSET	110.7	-3.89999	13.6
									CHANNELS 3  Xrotation Yrotation Zrotation
									JOINT right_hand
									{
										OFFSET	110.7	-3.89999	13.6
										CHANNELS 3  Xrotation Yrotation Zrotation
										JOINT right_ee
										{
											OFFSET	80.8	-5.10001	12.1
											CHANNELS 3  Xrotation Yrotation Zrotation
											End Site
											{
												OFFSET	1	0	0
											}
										}
									}
								}
							}
						}
					}
				}
			}
		}
	}
	JOINT left_hip
	{
		OFFSET	-82.8	-127.5	0.300001
		CHANNELS 3  Xrotation Yrotation Zrotation
		JOINT left_knee
		{
			OFFSET	-28.2	-396.7	2.2
			CHANNELS 3  Xrotation Yrotation Zrotation
			JOINT left_ankle
			{
				OFFSET	-11.7	-411.3	35.4
				CHANNELS 3  Xrotation Yrotation Zrotation
				JOINT left_toes
				{
					OFFSET	0	-60	-88.6
					CHANNELS 3  Xrotation Yrotation Zrotation
					JOINT left_foot_ee
					{
						OFFSET	-22.5	-16.5	-42.2
						CHANNELS 3  Xrotation Yrotation Zrotation
						End Site
						{
							OFFSET	1	0	0
						}
					}
				}
			}
		}
	}
	JOINT right_hip
	{
		OFFSET	82.8	-127.5	0.300001
		CHANNELS 3  Xrotation Yrotation Zrotation
		JOINT right_knee
		{
			OFFSET	28.2	-396.7	2.2
			CHANNELS 3  Xrotation Yrotation Zrotation
			JOINT right_ankle
			{
				OFFSET	11.7	-411.3	35.4
				CHANNELS 3  Xrotation Yrotation Zrotation
				JOINT right_toes
				{
					OFFSET	0	-60	-88.6
					CHANNELS 3  Xrotation Yrotation Zrotation
					JOINT right_foot_ee
					{
						OFFSET	22.5	-16.5	-42.2
						CHANNELS 3  Xrotation Yrotation Zrotation
						End Site
						{
							OFFSET	1	0	0
						}
					}
				}
			}
		}
	}
}
MOTION
Frames: 11
Frame Time: 0.02
2402.19 712.734 -615.921 50.4709 -89.2771 54.1762 1.07307 -0.341225 -1.83587 1.07491 -0.223733 -1.85385 1.08263 0.135744 -1.86236 1.07783 -0.160032 -1.86043 -15.2084 9.3149 4.67805 -15.3473 15.0751 7.55123 -0.0 0.0 -0.0 10.6199 0.131857 20.9339 -2.03273 -7.76254 68.9453 1.94068 -43.8666 0.781523 23.2713 0.224883 -2.94382 4.77704 18.4251 39.9269 -0.0 0.0 -0.0 10.8688 -19.4989 -18.9632 -27.4697 3.5837 -52.2906 0.643049 17.6693 -0.0999482 -55.2793 4.70219 -4.93013 -2.20253 4.80101 17.1286 0.0 0.0 0.0 1.86579 -5.41303 -1.78611 -7.64704 0.238495 1.14849 24.3321 27.0664 -3.46833 -19.4865 0.0 0.0 -0.0 0.0 -0.0 1.16134 2.13376 0.0936446 6.46405 0.319621 0.939591 10.2924 13.1449 1.56543 -22.713 0.0 0.0 0.0 0.0 0.0 
2410.25 713.537 -611.28 61.7177 -89.0317 65.1188 0.946344 -0.325751 -1.68447 0.947896 -0.21792 -1.70178 0.954835 0.116114 -1.71174 0.95078 -0.15564 -1.7086 -14.653 9.93113 4.26054 -14.8263 16.4373 7.29246 -0.0 0.0 -0.0 10.6171 0.78903 20.8876 -2.66023 -8.02757 68.8896 1.97789 -44.4102 0.807433 23.222 0.225678 -2.93757 4.72473 17.9245 39.3916 -0.0 0.0 -0.0 11.1276 -18.5007 -19.5872 -27.1984 3.03531 -52.1596 0.598318 16.5094 -0.0868028 -55.65 4.74726 -4.9453 -2.20966 4.56491 17.0699 0.0 0.0 0.0 1.88479 -5.17172 -1.92275 -8.10368 0.247858 1.21794 25.5173 27.2919 -3.6229 -18.6916 0.0 0.0 -0.0 0.0 -0.0 1.33597 2.27718 0.346848 5.93663 0.289581 0.86431 10.7977 14.8491 1.6586 -22.4616 0.0 0.0 0.0 0.0 0.0 
2415.07 711.363 -607.172 54.4902 -89.3403 57.7342 0.905221 -0.281765 -1.60918 0.906644 -0.178812 -1.62384 0.912136 0.140596 -1.62759 0.908459 -0.118181 -1.62937 -14.15 10.0828 4.42147 -14.308 16.5698 7.41706 -0.0 0.0 -0.0 10.4918 0.604082 20.6392 -3.10109 -8.23354 68.863 1.99821 -44.7028 0.821687 23.2437 0.225329 -2.94033 4.72663 17.8742 39.3964 -0.0 0.0 -0.0 11.3399 -18.0445 -20.0368 -27.2446 3.21151 -52.3712 0.589498 16.279 -0.0843134 -55.6908 4.75223 -4.94695 -2.20007 4.41514 16.9331 0.0 0.0 0.0 1.9054 -5.07619 -2.27214 -8.06722 0.247131 1.21239 25.6369 27.2424 -3.63669 -18.7588 0.0 0.0 -0.0 0.0 -0.0 1.39575 2.39548 0.39805 6.15831 0.302122 0.895984 10.7072 15.4944 1.65318 -22.0163 0.0 0.0 0.0 0.0 0.0 
2421.63 712.875 -603.707 47.333 -89.106 50.532 0.907195 -0.391856 -1.5795 0.908537 -0.290567 -1.60123 0.917133 0.0263891 -1.62716 0.913512 -0.230888 -1.61092 -13.9085 10.1573 3.01865 -14.1164 17.5374 6.08906 -0.0 0.0 -0.0 10.4167 0.954926 20.4625 -3.96781 -8.24796 69.0717 1.93342 -43.7593 0.776495 22.6714 0.23418 -2.86776 4.58329 18.6326 38.3917 -0.0 0.0 -0.0 11.2188 -17.6643 -19.9027 -27.1089 3.53378 -52.559 0.625261 17.2097 -0.0946172 -55.8012 4.76567 -4.9514 -2.22201 4.29438 17.0317 0.0 0.0 0.0 1.46799 -5.06493 -2.51316 -8.19981 0.249759 1.23257 25.5722 26.1374 -3.60322 -18.8525 0.0 0.0 -0.0 0.0 -0.0 1.64232 2.59519 0.198302 4.24689 0.198038 0.62136 10.8921 15.8639 1.68517 -21.6845 0.0 0.0 0.0 0.0 0.0 
2432.02 710.368 -599.455 38.071 -89.2298 41.0926 1.11798 -0.39545 -1.4894 1.11916 -0.299885 -1.51154 1.12744 -0.0058561 -1.54099 1.12421 -0.249124 -1.52073 -12.857 10.1749 3.52705 -13.0104 17.1417 6.40733 -0.0 0.0 -0.0 10.3951 0.823791 20.426 -5.01965 -8.59294 69.2373 1.79283 -41.6048 0.681165 22.9877 0.229378 -2.90788 4.78335 18.4445 39.983 -0.0 0.0 -0.0 10.9118 -16.9952 -19.4976 -26.5783 4.02193 -53.1487 0.608531 16.7755 -0.0897279 -55.8728 4.7744 -4.95427 -2.2955 4.43934 17.6176 0.0 0.0 0.0 0.401721 -5.02253 -2.70593 -7.10244 0.226603 1.06576 26.753 25.4489 -3.73289 -18.9084 0.0 0.0 -0.0 0.0 -0.0 1.46991 2.82118 0.0375617 3.231 0.146474 0.474059 13.5081 12.3514 2.01693 -20.9057 0.0 0.0 0.0 0.0 0.0 
2443.72 708.494 -594.545 86.5895 -89.4807 89.4853 1.28167 -0.110207 -1.44516 1.28284 -0.0180338 -1.44924 1.28344 0.255124 -1.42673 1.2806 0.0266215 -1.44911 -12.2551 9.78351 3.08985 -12.3871 16.6048 5.78356 -0.0 0.0 -0.0 10.0189 2.53371 19.5497 -5.93717 -10.6559 70.2388 1.74342 -40.8115 0.648613 23.3673 0.223323 -2.95598 4.87799 18.7036 40.8222 -0.0 0.0 -0.0 10.4346 -17.297 -18.6294 -26.0993 4.67626 -54.343 0.638016 17.5395 -0.0984262 -56.0596 4.79717 -4.96171 -2.49198 3.67887 18.6536 0.0 0.0 0.0 -0.363104 -4.71422 -3.01606 -7.05169 0.225455 1.05806 27.3425 25.7522 -3.81119 -19.0528 0.0 0.0 -0.0 0.0 -0.0 0.492126 2.28901 -0.45958 3.93238 0.181795 0.575852 15.609 13.3658 2.32404 -21.4009 0.0 0.0 0.0 0.0 0.0 
2454.92 704.54 -588.278 83.062 -89.3681 85.8977 1.4372 -0.136672 -1.41292 1.43831 -0.0464964 -1.41875 1.43957 0.217597 -1.40274 1.43683 -0.00664724 -1.4195 -11.9154 9.55511 3.99527 -12.0004 15.5507 6.52932 -0.0 0.0 -0.0 9.74881 4.08873 18.9038 -6.36017 -11.4023 70.4944 1.56988 -37.8686 0.538571 23.5811 0.21977 -2.98307 4.73096 19.4162 39.7447 -0.0 0.0 -0.0 10.1965 -17.2152 -18.2388 -25.8223 5.20863 -55.1233 0.635204 17.4669 -0.0975803 -56.42 4.84119 -4.97585 -2.81111 3.12657 20.6703 0.0 0.0 0.0 -0.711428 -4.9812 -3.20404 -7.58086 0.237091 1.13843 28.7577 25.7325 -3.97991 -18.3371 0.0 0.0 -0.0 0.0 -0.0 -0.740332 1.59455 -0.956596 4.20303 0.195758 0.615019 17.8953 11.9393 2.61191 -21.323 0.0 0.0 0.0 0.0 0.0 
2469.52 703.958 -584.997 92.114 -89.0785 94.8833 1.6265 -0.0861395 -1.38372 1.62757 0.00207634 -1.3864 1.62755 0.254863 -1.36278 1.62496 0.0364607 -1.38592 -11.9718 9.19911 3.5352 -12.0617 15.1769 5.99566 -0.0 0.0 -0.0 9.23068 6.85359 17.6932 -8.11047 -12.6302 70.9429 1.5149 -36.8835 0.505195 24.0502 0.211626 -3.04243 4.94246 20.1204 41.6274 -0.0 0.0 -0.0 10.0002 -17.3108 -17.8925 -25.5857 5.59082 -55.259 0.620911 17.097 -0.0933344 -56.6717 4.87197 -4.98556 -3.07173 2.72551 22.3586 0.0 0.0 0.0 -1.55123 -4.71014 -3.04852 -9.45418 0.272307 1.42373 31.6586 25.1703 -4.30084 -17.223 0.0 0.0 -0.0 0.0 -0.0 -1.95221 0.872728 -1.2161 3.45577 0.157657 0.506727 19.9292 11.2357 2.86741 -21.0641 0.0 0.0 0.0 0.0 0.0 
2480.3 701.436 -582.183 98.195 -88.7669 101.064 1.77647 -0.0247414 -1.43927 1.77762 0.0668837 -1.43793 1.77591 0.324372 -1.40247 1.77318 0.0988317 -1.43609 -11.6984 8.8129 3.27633 -11.7773 14.5796 5.60245 -0.0 0.0 -0.0 8.86295 7.82838 16.9231 -9.29157 -13.2838 71.0377 1.44285 -35.5531 0.46262 24.3072 0.206956 -3.07493 4.98716 20.5401 42.0759 -0.0 0.0 -0.0 9.88897 -17.2482 -17.7147 -24.94 6.08007 -55.4305 0.605702 16.7018 -0.088913 -56.8316 4.89156 -4.99167 -3.29928 2.34819 23.8338 0.0 0.0 0.0 -1.84996 -4.87203 -3.21949 -11.1586 0.296228 1.68416 33.7571 24.901 -4.52575 -16.3687 0.0 0.0 -0.0 0.0 -0.0 -3.24139 0.301418 -1.54661 3.56203 0.162989 0.522155 21.9959 10.3247 3.11484 -20.7266 0.0 0.0 0.0 0.0 0.0 
2489.51 698.66 -579.163 114.528 -88.8346 117.237 2.0619 0.12497 -1.37419 2.06293 0.212152 -1.36346 2.05772 0.447496 -1.3053 2.05542 0.235752 -1.35958 -11.7245 8.21684 3.14963 -11.7908 13.5331 5.31514 -0.0 0.0 -0.0 8.88021 10.3855 16.7513 -10.9221 -13.7378 69.9433 1.42867 -35.2858 0.454399 24.1908 0.209089 -3.06021 5.03092 21.0401 42.5277 -0.0 0.0 -0.0 9.9516 -16.4393 -17.9411 -24.3298 6.59993 -55.6453 0.60898 16.7872 -0.0898576 -57.0703 4.92081 -5.00067 -3.50085 2.15952 25.2275 0.0 0.0 0.0 -1.7974 -5.27148 -3.47182 -12.493 0.309542 1.88845 35.1842 24.3644 -4.66363 -16.0333 0.0 0.0 -0.0 0.0 -0.0 -4.36679 -0.0429142 -1.72767 5.0745 0.241977 0.740683 23.3934 9.93599 3.28088 -20.7804 0.0 0.0 0.0 0.0 0.0 
2501.48 696.654 -576.807 110.326 -88.8028 113.081 2.23524 0.0827733 -1.39416 2.23631 0.171311 -1.38607 2.23197 0.407172 -1.33595 2.22953 0.191094 -1.38348 -11.9015 7.51171 1.45424 -11.9894 13.3047 3.51276 -0.0 0.0 -0.0 8.35497 12.9881 15.5851 -11.7424 -13.5076 70.7094 1.37744 -34.3055 0.425161 24.2805 0.207447 -3.07156 4.90503 19.6106 41.2219 -0.0 0.0 -0.0 9.93113 -15.8027 -17.9984 -23.8688 6.83672 -55.5842 0.590692 16.3102 -0.0846485 -57.038 4.91685 -4.99946 -3.88636 1.58781 27.825 0.0 0.0 0.0 -2.12759 -5.36451 -3.47287 -13.1713 0.314485 1.99241 34.979 24.3501 -4.64158 -15.664 0.0 0.0 -0.0 0.0 -0.0 -4.95438 -0.381066 -1.8112 4.39007 0.205516 0.642048 24.8613 8.95073 3.44109 -20.6369 0.0 0.0 0.0 0.0 0.0 
